PathFileType	4	(X/Y/Z)	OpenSim_Sub10_EMGBaseline_Gyro.trc
DataRate	CameraRate	NumFrames	NumMarkers	Units	OrigDataRate	OrigDataStartFrame	OrigNumFrames
100	100	27	8	m	100	2051	8201
Frame#	Time	torso_imu_offset_imu	pelvis_imu_offset_imu	tibia_r_imu_offset_imu	femur_r_imu_offset_imu	tibia_l_imu_offset_imu	femur_l_imu_offset_imu	toes_r_imu_offset_imu	toes_l_imu_offset_imu
				X1	Y1	Z1	X2	Y2	Z2	X3	Y3	Z3	X4	Y4	Z4	X5	Y5	Z5	X6	Y6	Z6	X7	Y7	Z7	X8		Y8	Z8	

2051	20.50000000	0.32665400	-0.19854600	0.11599200	0.47770600	0.20004200	-0.12278200	-0.01396000	-0.07846500	-0.18751300	-0.03491200	0.03431500	-1.04443400	1.48477200	-0.15320700	-3.27136500	-0.51279500	0.32205500	-1.23534700	0.02451000	-0.06323800	-0.08890500	0.78938000	4.36410300	-0.03887800
2052	20.51000000	0.33602600	-0.21075300	0.09700100	0.43833900	0.22207300	-0.10512200	0.01494200	-0.06562900	-0.18386600	-0.04460800	0.03627100	-1.05061900	1.16272300	-0.06742200	-3.58732000	-0.56655300	0.25913400	-1.14887400	0.02371900	-0.07488500	-0.09719500	0.86927000	4.47984600	-0.16152600
2053	20.52000000	0.29802200	-0.22987900	0.07378300	0.39429500	0.24067700	-0.09019900	0.01558800	-0.09312100	-0.17746600	0.01191400	0.02823500	-1.06090800	0.82507400	0.00554500	-3.94020800	-0.60275900	0.20979000	-1.04814900	0.04342100	-0.06747500	-0.10064300	0.88849800	4.62162500	-0.23464400
2054	20.53000000	0.27328000	-0.22331900	0.06099900	0.34796400	0.25825800	-0.07839100	-0.04248700	-0.09669400	-0.15936600	0.08285100	0.03721600	-1.09127000	0.56057500	0.05710300	-4.28527200	-0.56523100	0.16342900	-0.93092500	0.02028600	-0.07692000	-0.07761200	0.86185500	4.80153600	-0.25530200
2055	20.54000000	0.29021200	-0.18960500	0.05980500	0.29464300	0.26158800	-0.07327100	-0.15797000	-0.03779400	-0.14890700	0.15630200	0.05013500	-1.10916000	0.37215500	0.07974000	-4.55764900	-0.48938300	0.11768900	-0.80375200	0.01125400	-0.06922900	-0.07272500	0.88087000	5.01282200	-0.26611200
2056	20.55000000	0.29620600	-0.16490500	0.07250500	0.24866200	0.24797500	-0.06790200	-0.27518400	-0.02985400	-0.20268600	0.22170700	0.08442400	-1.10716900	0.16976000	0.03534300	-4.75730800	-0.42608500	0.08103600	-0.65239300	-0.00666700	-0.07923100	-0.07968000	0.90798700	5.16798100	-0.29667100
2057	20.56000000	0.30082500	-0.16424400	0.09899500	0.20503000	0.23809600	-0.06795000	-0.39068500	-0.03142600	-0.26206200	0.28172500	0.11071600	-1.09912800	-0.08790400	0.00388800	-4.95154400	-0.39501700	0.04020800	-0.48866300	0.00864000	-0.09280400	-0.07523800	0.95289200	5.21604300	-0.35043600
2058	20.57000000	0.25886100	-0.19998600	0.09841900	0.16564200	0.21928000	-0.05981400	-0.50316100	-0.00700000	-0.31510200	0.32600300	0.12571100	-1.09285100	-0.37015600	0.10973400	-5.20905500	-0.40620200	0.00051600	-0.31296400	-0.00609600	-0.09582600	-0.07618000	1.01185600	5.17850300	-0.39585400
2059	20.58000000	0.20639900	-0.19872900	0.08214700	0.12922500	0.18982400	-0.05132400	-0.54944300	0.00082500	-0.33937000	0.34471900	0.12040000	-1.08983500	-0.76433600	0.33979200	-5.50510700	-0.39374700	-0.03773200	-0.11390200	-0.02714100	-0.09619600	-0.08481700	1.02807500	5.07573600	-0.42348400
2060	20.59000000	0.15694700	-0.20578100	0.06577300	0.09681200	0.14295600	-0.04209700	-0.49394700	0.02291300	-0.35887100	0.34780100	0.10066500	-1.05948300	-1.36486400	0.51935800	-5.81488900	-0.35532100	-0.06152300	0.08914100	-0.04597200	-0.10347200	-0.09533300	0.99760400	4.87850800	-0.51644300
2061	20.60000000	0.11714800	-0.22291700	0.04949900	0.05615700	0.08587800	-0.03315000	-0.37894100	0.02698800	-0.38783700	0.35501000	0.07310000	-1.01016800	-2.06809000	0.55963500	-6.04250600	-0.34982400	-0.07784000	0.24803700	-0.04461000	-0.09306900	-0.11792700	0.92606800	4.60795400	-0.75286200
2062	20.61000000	0.07120100	-0.22172700	0.04467100	0.01793100	0.02767100	-0.02921900	-0.25579000	-0.00904400	-0.41584200	0.37152500	0.03765700	-0.97114300	-2.33305600	0.61785600	-6.08201100	-0.31532300	-0.07960600	0.42584800	0.00329800	-0.09000200	-0.13483300	0.67784800	4.53761600	-1.19400800
2063	20.62000000	0.04360600	-0.18521600	0.04895500	-0.01940700	-0.02407900	-0.02096100	-0.17411600	-0.00824400	-0.42960300	0.37451800	0.00198800	-0.95768800	-1.88925800	0.80477100	-5.94718900	-0.26878000	-0.06654700	0.58184400	0.02488000	-0.11126700	-0.14827700	0.25996900	4.67056500	-1.75635700
2064	20.63000000	0.02524000	-0.15112300	0.05119100	-0.06526800	-0.07159800	-0.01548100	-0.12499200	0.01850700	-0.46149800	0.34099000	-0.02827900	-0.95256700	-1.29850900	1.09901700	-5.70684300	-0.24009700	-0.01164200	0.73549300	0.00939200	-0.10074700	-0.15677200	-0.18033600	4.66009700	-2.40075200
2065	20.64000000	-0.00868300	-0.15933600	0.04890900	-0.10826400	-0.10068000	-0.00983100	-0.07228600	0.04558000	-0.51526700	0.29340700	-0.03177200	-0.94533200	-1.18962100	1.29502000	-5.33336900	-0.24262700	0.07413000	0.87270300	-0.00729300	-0.11235800	-0.15922600	-0.15568800	4.47306500	-3.05386300
2066	20.65000000	-0.03471400	-0.16795700	0.03445900	-0.11777100	-0.09580400	-0.00768000	-0.05762700	0.06126900	-0.59397700	0.21970100	-0.01601500	-0.92478000	-1.21611400	1.18022800	-4.74956000	-0.25447700	0.17892300	0.97301500	-0.00388600	-0.12051200	-0.16244500	-0.15911600	4.28458100	-3.50385800
2067	20.66000000	-0.07307000	-0.16882500	0.01158200	-0.09907500	-0.05970400	-0.00357900	-0.11016400	0.05941500	-0.65468500	0.15967800	0.00006200	-0.89593000	-1.24741700	1.05624100	-3.96635000	-0.23828500	0.30603000	1.03128800	-0.02947500	-0.13895300	-0.16462500	-0.16845500	4.10110200	-3.54966000
2068	20.67000000	-0.09630100	-0.14561700	-0.00132500	-0.08017500	-0.02838800	0.00242400	-0.13703500	0.07831100	-0.70722800	0.09386700	0.01246800	-0.86852100	-1.27875700	1.20859900	-3.38096800	-0.13534800	0.40568400	1.06253200	-0.06794700	-0.14911500	-0.16193500	-0.62756600	3.80233500	-3.16723900
2069	20.68000000	-0.10409300	-0.09811100	0.00219600	-0.06986700	-0.03430700	0.01321800	-0.10687900	0.10230600	-0.78089200	0.02994900	0.01581800	-0.83733900	-0.99545100	1.40174400	-3.14990000	0.06593800	0.42743200	1.06167800	-0.07317200	-0.17941500	-0.19014300	-1.11777200	3.39614200	-2.47978800
2070	20.69000000	-0.09387300	-0.06881300	-0.00442500	-0.09287600	-0.07286600	0.02421900	-0.06179800	0.10759000	-0.86465600	-0.00890400	-0.00641100	-0.79736400	-0.63302400	1.33077300	-2.99908300	0.33178400	0.38849400	0.94397400	-0.02082500	-0.21386500	-0.23269700	-1.37705600	2.86193100	-1.67838800
2071	20.70000000	-0.10628400	-0.05952900	-0.01324300	-0.14343100	-0.11164300	0.01670400	-0.06719600	0.11201000	-0.92174900	-0.05598200	-0.05428200	-0.75301600	-0.43196500	1.00455400	-2.75946400	0.54184300	0.28625800	0.66537500	-0.03954700	-0.23856100	-0.30938700	-1.26603700	2.30609900	-0.94419500
2072	20.71000000	-0.08983200	-0.02446400	-0.00520000	-0.18492300	-0.12760600	0.00858400	-0.09494500	0.08410100	-0.94028000	-0.13581600	-0.08996200	-0.69966500	-0.45397800	0.67405400	-2.35132500	0.57476600	0.07439200	0.26738200	0.02507200	-0.29917900	-0.39772900	-0.45032200	1.80064400	-0.44903500
2073	20.72000000	-0.09320900	-0.02610600	-0.00534900	-0.18837800	-0.11803900	-0.01100600	-0.15231500	0.07784500	-0.99847900	-0.24156400	-0.10586500	-0.64420500	-0.51405600	0.27575700	-1.70049800	0.37764100	-0.22507200	-0.15868900	0.09557200	-0.33288100	-0.44279200	0.58552800	1.33327400	-0.13056100
2074	20.73000000	-0.09762600	-0.02239200	0.00155800	-0.15530100	-0.10936000	-0.03387600	-0.21895600	0.10076600	-1.07013000	-0.35989400	-0.07947800	-0.57090600	-0.14769400	-0.23950700	-0.91311800	-0.08120900	-0.45382500	-0.48084900	0.03570800	-0.39547200	-0.45756800	1.07506300	0.84328800	0.13934700
2075	20.74000000	-0.11396800	-0.01399800	0.01243200	-0.10697700	-0.12070600	-0.06502300	-0.31055600	0.10681000	-1.15253500	-0.47429300	-0.02859100	-0.49509800	0.39824800	-0.45655600	-0.15939800	-0.42960300	-0.52041000	-0.71132500	-0.00211900	-0.47739900	-0.45874300	0.78195800	0.36620300	0.33290100
2076	20.75000000	-0.12986800	0.00635700	0.01313700	-0.06435800	-0.15215400	-0.08636900	-0.42613300	0.11741200	-1.23329200	-0.56410300	0.03085500	-0.43523700	0.64232300	-0.39449900	0.42870400	-0.61370200	-0.43145200	-0.85603500	-0.00271800	-0.59942600	-0.44551700	0.35671400	-0.21629300	0.38312600
2077	20.76000000	-0.12937900	0.05698000	0.01674600	-0.07017700	-0.19574700	-0.11697700	-0.54439100	0.13869200	-1.31855200	-0.63308600	0.06584100	-0.39013000	0.73878300	-0.44766000	0.82326200	-0.58872200	-0.28956900	-0.90496400	0.01290300	-0.71298200	-0.39836100	0.13649100	-0.80464900	0.30184400
